<svg xmlns="http://www.w3.org/2000/svg" width="1200" height="800" viewBox="0 0 1200 800">
<defs><linearGradient id="bg" x1="0" y1="0" x2="1" y2="1"><stop stop-color="#EEE8FA"/><stop offset="1" stop-color="#F5E3EC"/></linearGradient><filter id="shadow" x="-30%" y="-30%" width="160%" height="160%"><feDropShadow dx="0" dy="20" stdDeviation="22" flood-color="#4B3860" flood-opacity=".13"/></filter></defs>
<rect width="1200" height="800" rx="44" fill="url(#bg)"/>
<g filter="url(#shadow)"><rect x="145" y="170" width="910" height="470" rx="28" fill="#FFF"/></g><rect x="145" y="170" width="910" height="62" rx="28" fill="#EEE7F7"/><circle cx="190" cy="201" r="10" fill="#DFA9C6"/><circle cx="220" cy="201" r="10" fill="#8B6BAE"/><rect x="280" y="190" width="360" height="20" rx="10" fill="#FFF"/><rect x="195" y="280" width="350" height="220" rx="24" fill="#F6E9EF"/><path d="M370 330v120M310 390h120" stroke="#8B6BAE" stroke-width="18" stroke-linecap="round"/><rect x="600" y="285" width="390" height="36" rx="18" fill="#EEE7F7"/><rect x="600" y="345" width="300" height="20" rx="10" fill="#D8CEDF"/><rect x="600" y="390" width="350" height="20" rx="10" fill="#D8CEDF"/><rect x="600" y="435" width="220" height="50" rx="16" fill="#C991AE"/>
<text x="72" y="86" font-family="Arial,sans-serif" font-size="24" font-weight="700" letter-spacing="4" fill="#6E538D">WEBSITE</text>
<circle cx="1080" cy="82" r="16" fill="#DCA8C3"/><circle cx="1120" cy="82" r="8" fill="#8D6CAF"/>
</svg>